<?xml version="1.0" standalone="no"?>
<!DOCTYPE svg PUBLIC "-//W3C//DTD SVG 20010904//EN"
 "http://www.w3.org/TR/2001/REC-SVG-20010904/DTD/svg10.dtd">
<svg version="1.0" xmlns="http://www.w3.org/2000/svg"
 width="130.000000pt" height="130.000000pt" viewBox="0 0 130.000000 130.000000"
 preserveAspectRatio="xMidYMid meet">
<metadata>
Created by potrace 1.14, written by Peter Selinger 2001-2017
</metadata>
<g transform="translate(0.000000,130.000000) scale(0.100000,-0.100000)"
fill="#000000" stroke="none">
<path d="M902 1094 c-18 -15 -31 -32 -28 -39 3 -10 -5 -10 -37 -3 -157 36
-336 -51 -409 -200 -31 -61 -33 -74 -33 -165 0 -69 4 -100 13 -106 24 -15
-130 -44 -260 -49 -90 -3 -128 -8 -128 -16 0 -7 15 -26 33 -44 27 -26 41 -32
78 -32 56 0 173 29 259 65 97 40 97 40 68 16 -60 -48 -246 -111 -330 -111 -21
0 -38 -4 -38 -9 0 -19 67 -61 98 -61 66 0 180 54 297 141 24 18 22 14 -10 -20
-65 -69 -145 -113 -254 -141 -39 -10 -42 -13 -25 -24 11 -7 35 -19 55 -26 33
-12 40 -11 89 16 30 16 89 63 133 104 44 41 75 65 68 53 -6 -13 -16 -23 -22
-23 -6 0 -8 -4 -5 -9 8 -12 -90 -108 -151 -149 -29 -19 -53 -36 -53 -38 0 -2
27 -4 60 -4 57 0 63 2 105 41 25 23 54 57 66 75 l20 34 38 -20 c62 -31 164
-45 230 -30 119 26 213 97 267 202 24 47 43 137 38 179 -11 82 -17 106 -40
151 -14 27 -43 69 -65 93 -21 23 -39 45 -39 48 0 7 80 37 120 46 l32 6 -42 22
-41 23 -40 -21 c-22 -11 -48 -28 -58 -38 -10 -10 -24 -15 -30 -11 -8 4 8 22
44 50 30 23 55 44 55 46 0 2 -21 4 -47 4 -36 0 -56 -7 -81 -26z"/>
<path d="M1070 1004 c-60 -21 -64 -27 -37 -52 22 -20 25 -21 71 -7 27 8 65 15
85 15 l36 1 -35 29 c-39 34 -56 36 -120 14z"/>
<path d="M1130 928 c-59 -13 -64 -19 -37 -49 21 -24 25 -25 106 -20 l85 6 -33
38 c-35 39 -45 42 -121 25z"/>
</g>
</svg>
