<svg xmlns="http://www.w3.org/2000/svg" width="112" height="40" viewBox="0 0 112 40">
    <g fill="none" fill-rule="evenodd">
        <path fill="#CCC" d="M33.908.296h65.648c2.933 0 5.333 2.4 5.333 5.334v28.549c0 2.933-2.4 5.333-5.333 5.333H33.908"/>
        <path stroke="#CCC" d="M99.556.296H5.333C2.4.296 0 2.696 0 5.63v28.549c0 2.933 2.4 5.333 5.333 5.333h94.223c2.933 0 5.333-2.4 5.333-5.333V5.629c0-2.933-2.4-5.333-5.333-5.333"/>
        <path fill="#CCC" d="M109.097 37.03c.316 0 .485-.169.485-.406v-.014c0-.273-.19-.412-.5-.412h-.612v.832h.627zm-1.252-1.385h1.26c.382 0 .678.11.876.31.154.155.237.368.237.62v.014c0 .456-.251.743-.612.876l.692 1.015h-.73l-.604-.912h-.494v.912h-.625v-2.835zm3.453 1.494v-.015c0-1.301-1.01-2.355-2.35-2.355-1.345 0-2.363 1.069-2.363 2.37v.015c0 1.305 1.009 2.358 2.349 2.358 1.35 0 2.364-1.068 2.364-2.373zm-5.02.015v-.015c0-1.45 1.177-2.666 2.67-2.666 1.498 0 2.66 1.202 2.66 2.651v.015c0 1.453-1.177 2.669-2.674 2.669-1.494 0-2.657-1.201-2.657-2.654zM18.736 34.802c.692 0 1.109-.244 1.109-.774v-.02c0-.479-.356-.774-1.16-.774h-1.812v1.568h1.863zm-.417-2.87c.692 0 1.13-.225 1.13-.754v-.02c0-.468-.367-.733-1.028-.733h-1.548v1.506h1.446zm-2.972-2.882h3.308c.814 0 1.455.225 1.862.632.326.325.489.723.489 1.211v.02c0 .805-.428 1.253-.937 1.537.825.317 1.334.794 1.334 1.752v.02c0 1.302-1.059 1.954-2.667 1.954h-3.39V29.05zM11.997 34.802c.692 0 1.11-.244 1.11-.774v-.02c0-.479-.356-.774-1.16-.774h-1.812v1.568h1.862zm-.417-2.87c.692 0 1.13-.225 1.13-.754v-.02c0-.468-.367-.733-1.028-.733h-1.547v1.506h1.445zM8.608 29.05h3.308c.814 0 1.456.225 1.863.632.326.325.488.723.488 1.211v.02c0 .805-.427 1.253-.936 1.537.824.317 1.333.794 1.333 1.752v.02c0 1.302-1.058 1.954-2.667 1.954H8.608V29.05zM25.474 34.802c.692 0 1.11-.244 1.11-.774v-.02c0-.479-.356-.774-1.16-.774H23.61v1.568h1.863zm-.417-2.87c.692 0 1.13-.225 1.13-.754v-.02c0-.468-.367-.733-1.028-.733H23.61v1.506h1.446zm-2.972-2.882h3.308c.814 0 1.455.225 1.862.632.326.325.49.723.49 1.211v.02c0 .805-.428 1.253-.938 1.537.825.317 1.334.794 1.334 1.752v.02c0 1.302-1.059 1.954-2.667 1.954h-3.39V29.05zM24.39 24.411L12.315 24.411 11.877 25.854 15.094 25.854 15.709 27.846 20.999 27.846 21.611 25.854 24.828 25.854zM14.286 16.303c-.448.618-.629 1.372-.509 2.124.121.754.528 1.415 1.144 1.862l2.89 2.1c.154.111.256.277.285.465.03.188-.015.378-.127.532l.436.315 1.527-2.106c.357-.493.544-1.073.544-1.67 0-.15-.012-.302-.037-.454-.12-.753-.526-1.414-1.143-1.862l-2.89-2.1c-.154-.112-.256-.277-.286-.465-.006-.038-.009-.077-.009-.115 0-.149.047-.294.136-.416l-.434-.316-1.527 2.106M16.027 7.863c-.517.714-.789 1.556-.789 2.422 0 .219.018.44.052.66.175 1.091.764 2.05 1.66 2.7l3.631 2.63c.48.347.795.861.889 1.447.018.118.028.235.028.352 0 .464-.146.916-.424 1.299l.348.252 2.862-3.956c.65-.894.911-1.988.737-3.08-.174-1.092-.763-2.051-1.659-2.7l-4.385-3.187c-.276-.2-.457-.496-.511-.833-.054-.336.027-.674.227-.95l-.348-.252-2.318 3.196z"/>
        <path fill="#404042" stroke="#404042" stroke-width=".3" d="M41.116 13.9h2.205l-.679-1.8c-.207-.548-.36-.997-.461-1.35-.083.418-.2.832-.35 1.243l-.715 1.908zm-1.876 2.672l2.497-6.505h.928l2.661 6.505h-.98l-.759-1.97h-2.72l-.714 1.97h-.913zM50.655 14.291l.86.217c-.18.707-.505 1.246-.973 1.617-.47.372-1.042.557-1.72.557-.7 0-1.27-.142-1.71-.428-.439-.285-.773-.698-1.002-1.24-.23-.541-.344-1.122-.344-1.743 0-.677.129-1.268.388-1.773.259-.504.627-.887 1.105-1.149.477-.262 1.003-.392 1.577-.392.65 0 1.198.166 1.641.496.444.332.753.798.927 1.398l-.847.2c-.15-.473-.37-.818-.656-1.034-.287-.216-.648-.324-1.083-.324-.5 0-.918.12-1.253.36-.336.239-.572.56-.708.964-.136.404-.204.82-.204 1.25 0 .552.08 1.035.242 1.448.16.412.412.72.752.925.34.204.708.306 1.105.306.481 0 .89-.139 1.224-.417.334-.278.56-.69.679-1.238M57.216 14.291l.86.217c-.18.707-.504 1.246-.973 1.617-.469.372-1.042.557-1.72.557-.7 0-1.27-.142-1.71-.428-.438-.285-.773-.698-1.002-1.24-.23-.541-.344-1.122-.344-1.743 0-.677.13-1.268.388-1.773.26-.504.627-.887 1.105-1.149s1.003-.392 1.577-.392c.65 0 1.198.166 1.642.496.443.332.752.798.927 1.398l-.847.2c-.151-.473-.37-.818-.657-1.034-.287-.216-.648-.324-1.083-.324-.5 0-.917.12-1.253.36-.336.239-.571.56-.707.964-.136.404-.205.82-.205 1.25 0 .552.081 1.035.242 1.448.161.412.412.72.752.925.34.204.709.306 1.105.306.482 0 .89-.139 1.224-.417.335-.278.561-.69.68-1.238M60.011 12.938h1.85c.394 0 .701-.04.923-.122.222-.081.39-.212.506-.39.115-.18.173-.374.173-.584 0-.307-.112-.56-.335-.758-.223-.199-.576-.298-1.058-.298H60.01v2.152zm-.86 3.634v-6.504h2.883c.58 0 1.02.058 1.323.175.301.117.542.323.722.619.18.295.271.622.271.98 0 .461-.15.85-.448 1.167-.299.317-.76.518-1.384.603.228.11.4.218.52.324.25.23.488.52.713.865l1.131 1.77H63.8l-.86-1.353c-.252-.39-.46-.689-.622-.896-.162-.207-.308-.352-.436-.435-.13-.082-.26-.14-.393-.173-.098-.02-.258-.03-.48-.03h-.998v2.888h-.86zM65.717 16.571L65.717 10.067 70.419 10.067 70.419 10.835 66.577 10.835 66.577 12.827 70.175 12.827 70.175 13.59 66.577 13.59 66.577 15.804 70.57 15.804 70.57 16.571zM72.62 15.804h1.389c.428 0 .765-.04 1.009-.12.244-.08.438-.192.583-.337.204-.204.363-.478.477-.823.114-.344.17-.763.17-1.253 0-.68-.11-1.203-.334-1.569-.223-.365-.495-.61-.814-.734-.23-.089-.602-.133-1.114-.133H72.62v4.969zm-.86.768v-6.504H74c.505 0 .892.03 1.158.093.372.085.69.241.953.465.343.29.6.66.77 1.112.17.451.255.966.255 1.546 0 .494-.057.932-.173 1.313-.115.382-.263.697-.443.948-.18.25-.378.446-.593.59-.214.143-.473.252-.776.326-.303.073-.651.11-1.045.11H71.76zM78.467 16.572L79.328 16.572 79.328 10.068 78.467 10.068zM82.5 16.571L82.5 10.835 80.357 10.835 80.357 10.067 85.512 10.067 85.512 10.835 83.36 10.835 83.36 16.571zM86.413 16.571L86.413 10.067 91.116 10.067 91.116 10.835 87.274 10.835 87.274 12.827 90.872 12.827 90.872 13.59 87.274 13.59 87.274 15.804 91.267 15.804 91.267 16.571zM93.316 15.804h1.389c.429 0 .765-.04 1.01-.12.243-.08.437-.192.583-.337.204-.204.363-.478.477-.823.113-.344.17-.763.17-1.253 0-.68-.111-1.203-.335-1.569-.223-.365-.494-.61-.814-.734-.23-.089-.601-.133-1.113-.133h-1.367v4.969zm-.86.768v-6.504h2.24c.506 0 .892.03 1.158.093.373.085.69.241.954.465.343.29.6.66.77 1.112.17.451.254.966.254 1.546 0 .494-.057.932-.173 1.313-.115.382-.262.697-.443.948-.18.25-.378.446-.592.59-.215.143-.474.252-.777.326-.303.073-.651.11-1.044.11h-2.347zM44.594 25.194l.861.217c-.18.707-.505 1.246-.974 1.618-.469.37-1.042.556-1.719.556-.701 0-1.271-.142-1.71-.428-.44-.285-.774-.698-1.003-1.24-.23-.54-.344-1.122-.344-1.743 0-.677.13-1.268.389-1.773.258-.504.627-.887 1.104-1.149.478-.262 1.003-.392 1.577-.392.651 0 1.198.166 1.642.497.443.33.752.797.927 1.397l-.847.2c-.15-.473-.37-.818-.657-1.034-.287-.216-.647-.324-1.082-.324-.5 0-.918.12-1.254.36-.335.24-.571.56-.707.964-.136.404-.204.82-.204 1.25 0 .552.08 1.035.241 1.448.162.412.412.72.752.925.34.204.709.306 1.105.306.482 0 .89-.139 1.225-.417.334-.278.56-.69.678-1.238M46.542 27.475L46.542 20.971 47.403 20.971 47.403 23.641 50.783 23.641 50.783 20.971 51.644 20.971 51.644 27.475 50.783 27.475 50.783 24.409 47.403 24.409 47.403 27.475zM54.24 24.804h2.204l-.678-1.801c-.208-.548-.361-.997-.462-1.35-.083.418-.2.832-.35 1.243l-.715 1.908zm-1.877 2.67l2.498-6.504h.927l2.662 6.505h-.98l-.76-1.97h-2.719l-.714 1.97h-.914zM60.011 23.841h1.85c.394 0 .701-.04.923-.122.222-.081.39-.211.506-.39.115-.18.173-.374.173-.584 0-.307-.112-.56-.335-.758-.223-.199-.576-.298-1.058-.298H60.01v2.152zm-.86 3.634V20.97h2.883c.58 0 1.02.058 1.323.175.301.117.542.323.722.619.18.295.271.623.271.98 0 .461-.15.85-.448 1.167-.299.317-.76.518-1.384.603.228.11.4.218.52.324.25.23.488.52.713.865l1.131 1.77H63.8l-.86-1.353c-.252-.39-.46-.689-.622-.896-.162-.207-.308-.352-.436-.435-.13-.082-.26-.14-.393-.173-.098-.02-.258-.03-.48-.03h-.998v2.888h-.86zM65.845 27.474L66.706 27.474 66.706 20.97 65.845 20.97zM69.878 27.475L69.878 21.738 67.735 21.738 67.735 20.971 72.891 20.971 72.891 21.738 70.739 21.738 70.739 27.475zM75.606 27.475v-2.756l-2.507-3.748h1.047l1.282 1.96c.237.367.457.734.661 1.1.195-.34.432-.722.71-1.148l1.26-1.912h1.003l-2.596 3.748v2.756h-.86z"/>
    </g>
</svg>
